#!OML:ASF X:\für Bonn\!DataBase\2005_08_11_Bastian_Final\c3d\Bastian.ASF
:FULLY-SPECIFIED
:DEGREES
199
root 6.11585 12.5633 -3.04027 143.624 74.0708 -216.412
lowerback 70.3852 -10.1355 10.8241
upperback 16.8688 4.04989 6.7664
thorax -1.71223 4.03074 1.84783
lowerneck -3.67761 -14.293 3.92738
upperneck -27.5561 -16.3893 17.7863
head -6.65024 -9.83961 5.7816
rclavicle 1.90833e-014 2.28602e-014
rhumerus 31.2114 -5.16038 -38.1048
rradius 19.2827
rwrist 0.202721
rhand -45.1567 -1.89473
rfingers 7.12502
rthumb -17.9344 -31.0878
lclavicle 1.90833e-014 2.28602e-014
lhumerus 11.83 -36.803 76.1798
lradius 50.0133
lwrist 24.8054
lhand -12.5988 -9.92305
lfingers 7.12502
lthumb 13.4799 19.6207
rfemur -69.1257 -7.08969 7.22179
rtibia 100.209
rfoot -21.3974 -5.05777
rtoes -16.8657
lfemur -60.3075 -2.10824 -37.0641
ltibia 96.1699
lfoot -24.121 -12.4056
ltoes 16.7034
200
root 6.11821 12.6852 -3.03475 143.555 74.0333 -216.673
lowerback 70.1644 -10.0575 10.7173
upperback 16.947 4.00901 6.80668
thorax -1.65663 4.00245 1.93782
lowerneck -4.04235 -14.1708 3.69805
upperneck -27.4571 -16.2645 17.6804
head -6.5493 -9.72425 5.73334
rclavicle 3.81667e-014 1.0138e-014
rhumerus 31.3548 -4.65985 -37.9439
rradius 19.3566
rwrist -0.432789
rhand -44.7684 -2.46448
rfingers 7.12502
rthumb -17.5608 -31.6914
lclavicle 3.81667e-014 1.0138e-014
lhumerus 12.1609 -36.5851 76.1949
lradius 49.836
lwrist 24.6079
lhand -12.7006 -9.94021
lfingers 7.12502
lthumb 13.3818 19.61
rfemur -68.5025 -6.78134 7.09623
rtibia 99.0886
rfoot -21.0661 -5.22125
rtoes -16.9939
lfemur -59.693 -2.15363 -37.025
ltibia 94.9134
lfoot -23.691 -12.3441
ltoes 16.4612
201
root 6.12123 12.8092 -3.02905 143.551 74.0127 -216.853
lowerback 69.9334 -10.0022 10.7122
upperback 16.9457 3.98532 6.78957
thorax -1.6753 3.98531 1.91445
lowerneck -4.14276 -14.096 3.5749
upperneck -27.4066 -16.1802 17.5915
head -6.51668 -9.6534 5.70692
rclavicle -1.08139e-013 -1.01678e-013
rhumerus 31.2367 -4.09977 -37.8643
rradius 19.4794
rwrist -1.06416
rhand -44.3605 -3.07147
rfingers 7.12502
rthumb -17.1682 -32.333
lclavicle -1.08139e-013 -1.01678e-013
lhumerus 12.3406 -36.5786 76.1586
lradius 49.7509
lwrist 24.4508
lhand -12.8031 -9.99592
lfingers 7.12502
lthumb 13.283 19.5608
rfemur -67.8416 -6.46844 7.00688
rtibia 97.9432
rfoot -20.6944 -5.41068
rtoes -16.9813
lfemur -59.0386 -2.19456 -36.9607
ltibia 93.6253
lfoot -23.2713 -12.2428
ltoes 16.0551
202
root 6.1256 12.9331 -3.02361 143.555 73.9944 -217.04
lowerback 69.6312 -9.92356 10.7197
upperback 16.9353 3.97378 6.78707
thorax -1.7101 3.96958 1.89296
lowerneck -4.12471 -14.0385 3.4196
upperneck -27.362 -16.1138 17.5117
head -6.50015 -9.59434 5.69858
rclavicle 8.26944e-014 1.35174e-014
rhumerus 31.137 -3.91707 -38.137
rradius 19.4116
rwrist -0.993486
rhand -43.7913 -3.40482
rfingers 7.12502
rthumb -16.6202 -32.7132
lclavicle 8.26944e-014 1.35174e-014
lhumerus 12.4347 -36.5892 76.2154
lradius 49.6637
lwrist 24.3265
lhand -12.8818 -10.0352
lfingers 7.12502
lthumb 13.2071 19.5264
rfemur -67.1923 -6.15835 6.90915
rtibia 96.7867
rfoot -20.3467 -5.55815
rtoes -16.9711
lfemur -58.4062 -2.24542 -36.8898
ltibia 92.3304
lfoot -22.8543 -12.1598
ltoes 15.6463
203
root 6.13079 13.0581 -3.01719 143.521 73.9796 -217.242
lowerback 69.3254 -9.821 10.6783
upperback 16.9499 3.95983 6.79386
thorax -1.72262 3.95215 1.90159
lowerneck -4.08805 -13.9781 3.26458
upperneck -27.3814 -16.037 17.4247
head -6.50962 -9.53168 5.6953
rclavicle -1.04958e-013 2.15184e-014
rhumerus 31.0253 -3.58172 -38.322
rradius 19.433
rwrist -1.09092
rhand -43.201 -3.77718
rfingers 7.12502
rthumb -16.0519 -33.1323
lclavicle -1.04958e-013 2.15184e-014
lhumerus 12.5742 -36.5874 76.2399
lradius 49.54
lwrist 24.1753
lhand -12.9819 -10.045
lfingers 7.12502
lthumb 13.1106 19.5229
rfemur -66.5105 -5.84867 6.8272
rtibia 95.6124
rfoot -20.0028 -5.72676
rtoes -17.067
lfemur -57.7211 -2.26823 -36.828
ltibia 91.0035
lfoot -22.4022 -12.0658
ltoes 15.2416
204
root 6.13641 13.1825 -3.01175 143.531 73.9558 -217.421
lowerback 68.9598 -9.7659 10.6696
upperback 16.9661 3.89407 6.75023
thorax -1.72542 3.91912 1.85987
lowerneck -4.0778 -13.902 3.10531
upperneck -27.3883 -15.9288 17.3792
head -6.50812 -9.45447 5.70149
rclavicle -3.49861e-014 -5.61567e-014
rhumerus 30.9746 -3.28746 -38.6528
rradius 19.3614
rwrist -1.04352
rhand -42.5863 -3.94166
rfingers 7.12502
rthumb -15.4599 -33.3435
lclavicle -3.49861e-014 -5.61567e-014
lhumerus 12.7473 -36.5608 76.2245
lradius 49.4012
lwrist 24.0595
lhand -12.9757 -10.029
lfingers 7.12502
lthumb 13.1166 19.5385
rfemur -65.851 -5.58224 6.75301
rtibia 94.4326
rfoot -19.6226 -5.88209
rtoes -17.1426
lfemur -57.0655 -2.32994 -36.7687
ltibia 89.675
lfoot -21.9728 -11.9669
ltoes 14.8646
205
root 6.14345 13.3081 -3.00456 143.595 73.9537 -217.53
lowerback 68.5789 -9.67917 10.6416
upperback 17.0254 3.85788 6.73926
thorax -1.68494 3.89966 1.85197
lowerneck -4.09472 -13.8208 2.96039
upperneck -27.4865 -15.8099 17.3049
head -6.53779 -9.37161 5.70268
rclavicle -2.54444e-014 -5.38706e-014
rhumerus 30.9229 -3.02435 -38.9576
rradius 19.3364
rwrist -0.970985
rhand -41.885 -4.00458
rfingers 7.12502
rthumb -14.7844 -33.4572
lclavicle -2.54444e-014 -5.38706e-014
lhumerus 13.0614 -36.5207 76.1988
lradius 49.1616
lwrist 23.8929
lhand -13.0211 -10.0542
lfingers 7.12502
lthumb 13.0728 19.5161
rfemur -65.1601 -5.27789 6.70499
rtibia 93.2332
rfoot -19.2527 -6.06411
rtoes -17.1744
lfemur -56.3873 -2.36997 -36.6624
ltibia 88.32
lfoot -21.5008 -11.8958
ltoes 14.5899
206
root 6.15345 13.4347 -2.99676 143.679 74.001 -217.631
lowerback 68.1548 -9.57054 10.6276
upperback 17.0838 3.83433 6.70974
thorax -1.64419 3.88669 1.81045
lowerneck -4.10785 -13.7488 2.83027
upperneck -27.5696 -15.701 17.247
head -6.56244 -9.296 5.70615
rclavicle 6.36111e-015 -4.24654e-014
rhumerus 30.7599 -2.46106 -39.0933
rradius 19.4137
rwrist -1.3107
rhand -41.2308 -4.06078
rfingers 7.12502
rthumb -14.154 -33.5586
lclavicle 6.36111e-015 -4.24654e-014
lhumerus 13.3451 -36.4993 76.1583
lradius 48.9553
lwrist 23.7522
lhand -12.9887 -9.99329
lfingers 7.12502
lthumb 13.1041 19.575
rfemur -64.4774 -4.93519 6.70232
rtibia 92.0145
rfoot -18.9028 -6.23541
rtoes -17.2397
lfemur -55.7177 -2.38076 -36.5223
ltibia 86.9674
lfoot -21.0661 -11.7845
ltoes 14.0172
207
root 6.16362 13.559 -2.98914 143.835 74.0196 -217.661
lowerback 67.6811 -9.47117 10.5888
upperback 17.1631 3.77863 6.68166
thorax -1.58313 3.86016 1.7914
lowerneck -4.09528 -13.6629 2.75662
upperneck -27.6617 -15.5758 17.151
head -6.60566 -9.2154 5.694
rclavicle 5.725e-014 8.54153e-016
rhumerus 30.5825 -1.78412 -39.2105
rradius 19.5545
rwrist -1.72681
rhand -40.5624 -4.01433
rfingers 7.12502
rthumb -13.5099 -33.5561
lclavicle 5.725e-014 8.54153e-016
lhumerus 13.6585 -36.4663 76.067
lradius 48.7204
lwrist 23.6249
lhand -12.9584 -9.9611
lfingers 7.12502
lthumb 13.1333 19.6053
rfemur -63.799 -4.65274 6.70493
rtibia 90.7924
rfoot -18.5262 -6.38606
rtoes -17.185
lfemur -55.0501 -2.42644 -36.3893
ltibia 85.6003
lfoot -20.5966 -11.6968
ltoes 13.6385
208
root 6.17461 13.6851 -2.98104 144.178 74.0542 -217.473
lowerback 67.25 -9.39841 10.6296
upperback 17.1919 3.75176 6.65038
thorax -1.56674 3.84687 1.7282
lowerneck -4.03217 -13.6023 2.70409
upperneck -27.7323 -15.4855 17.0642
head -6.64911 -9.15679 5.68467
rclavicle 1.24042e-013 6.01324e-015
rhumerus 30.2264 -0.842444 -39.1429
rradius 19.8187
rwrist -2.53273
rhand -39.8844 -3.96116
rfingers 7.12502
rthumb -12.8563 -33.5452
lclavicle 1.24042e-013 6.01324e-015
lhumerus 13.9235 -36.4552 76.0324
lradius 48.5044
lwrist 23.4399
lhand -12.8538 -9.88497
lfingers 7.12502
lthumb 13.2341 19.6749
rfemur -63.0686 -4.36542 6.76999
rtibia 89.5334
rfoot -18.1366 -6.5585
rtoes -17.1877
lfemur -54.3493 -2.47205 -36.1925
ltibia 84.2308
lfoot -20.1577 -11.5989
ltoes 13.1524
209
root 6.18817 13.8139 -2.9729 144.837 74.1656 -216.969
lowerback 66.8113 -9.35859 10.7415
upperback 17.2084 3.72712 6.60733
thorax -1.55334 3.83724 1.62454
lowerneck -3.94687 -13.5276 2.68777
upperneck -27.7982 -15.3768 16.9545
head -6.7022 -9.09101 5.6651
rclavicle 8.26944e-014 -1.34677e-014
rhumerus 29.8253 0.276965 -39.023
rradius 20.094
rwrist -3.3189
rhand -39.2444 -3.81006
rfingers 7.12502
rthumb -12.2393 -33.4319
lclavicle 8.26944e-014 -1.34677e-014
lhumerus 14.2003 -36.4443 75.969
lradius 48.2459
lwrist 23.285
lhand -12.7382 -9.80369
lfingers 7.12502
lthumb 13.3455 19.7489
rfemur -62.3073 -4.05111 6.97071
rtibia 88.237
rfoot -17.769 -6.76513
rtoes -17.2635
lfemur -53.648 -2.49211 -35.8703
ltibia 82.8455
lfoot -19.7208 -11.5245
ltoes 12.5373
